<svg xmlns="http://www.w3.org/2000/svg" viewBox="0 0 640 420" role="img" aria-labelledby="t d">
<title id="t">Binding</title><desc id="d">wiro, spiral, perfect and hard binding</desc>
<defs><linearGradient id="g" x1="0" y1="0" x2="1" y2="1"><stop offset="0" stop-color="#4f46e5"/><stop offset="1" stop-color="#007041"/></linearGradient><filter id="s" x="-20%" y="-20%" width="140%" height="140%"><feDropShadow dx="0" dy="18" stdDeviation="18" flood-color="#020617" flood-opacity=".22"/></filter></defs>
<rect width="640" height="420" rx="44" fill="url(#g)"/><path d="M-40 350C80 250 150 360 290 250s210-120 390-40v250H-40z" fill="#ffffff" opacity=".14"/><circle cx="542" cy="86" r="76" fill="#ffffff" opacity=".13"/><g filter="url(#s)"><rect x="160" y="95" width="270" height="210" rx="18" fill="#fff"/><path d="M190 130h205M190 165h170M190 200h195M190 235h145" stroke="#94a3b8" stroke-width="8" stroke-linecap="round"/><g fill="none" stroke="#0f172a" stroke-width="9"><path d="M148 120c35 0 35 25 0 25"/><path d="M148 160c35 0 35 25 0 25"/><path d="M148 200c35 0 35 25 0 25"/><path d="M148 240c35 0 35 25 0 25"/></g></g><text x="48" y="352" fill="#fff" font-family="Arial, Helvetica, sans-serif" font-size="36" font-weight="800">Binding</text><text x="48" y="382" fill="#fff" opacity=".86" font-family="Arial, Helvetica, sans-serif" font-size="17" font-weight="600">wiro, spiral, perfect and hard binding</text></svg>