<svg xmlns="http://www.w3.org/2000/svg" viewBox="0 0 640 420" role="img" aria-labelledby="t d">
<title id="t">Graphic Designing</title><desc id="d">flyers, visiting cards, menus and brochures</desc>
<defs><linearGradient id="g" x1="0" y1="0" x2="1" y2="1"><stop offset="0" stop-color="#e6007e"/><stop offset="1" stop-color="#007041"/></linearGradient><filter id="s" x="-20%" y="-20%" width="140%" height="140%"><feDropShadow dx="0" dy="18" stdDeviation="18" flood-color="#020617" flood-opacity=".22"/></filter></defs>
<rect width="640" height="420" rx="44" fill="url(#g)"/><path d="M-40 350C80 250 150 360 290 250s210-120 390-40v250H-40z" fill="#ffffff" opacity=".14"/><circle cx="542" cy="86" r="76" fill="#ffffff" opacity=".13"/><g filter="url(#s)"><rect x="140" y="90" width="330" height="210" rx="22" fill="#0f172a"/><rect x="170" y="120" width="210" height="145" rx="8" fill="#fff"/><path d="M192 152h70v70h-70z" fill="#00a6df"/><path d="M282 152h70M282 178h55M192 242h160" stroke="#94a3b8" stroke-width="8" stroke-linecap="round"/><circle cx="420" cy="144" r="18" fill="#e6007e"/><circle cx="420" cy="196" r="18" fill="#f4c300"/></g><text x="48" y="352" fill="#fff" font-family="Arial, Helvetica, sans-serif" font-size="36" font-weight="800">Graphic Designing</text><text x="48" y="382" fill="#fff" opacity=".86" font-family="Arial, Helvetica, sans-serif" font-size="17" font-weight="600">flyers, visiting cards, menus and brochures</text></svg>