<svg xmlns="http://www.w3.org/2000/svg" viewBox="0 0 640 420" role="img" aria-labelledby="t d">
<title id="t">Business Cards</title><desc id="d">front-only and front &amp; back visiting cards</desc>
<defs><linearGradient id="g" x1="0" y1="0" x2="1" y2="1"><stop offset="0" stop-color="#007041"/><stop offset="1" stop-color="#e6007e"/></linearGradient><filter id="s" x="-20%" y="-20%" width="140%" height="140%"><feDropShadow dx="0" dy="18" stdDeviation="18" flood-color="#020617" flood-opacity=".22"/></filter></defs>
<rect width="640" height="420" rx="44" fill="url(#g)"/><path d="M-40 350C80 250 150 360 290 250s210-120 390-40v250H-40z" fill="#ffffff" opacity=".14"/><circle cx="542" cy="86" r="76" fill="#ffffff" opacity=".13"/><g filter="url(#s)"><g transform="rotate(-8 300 205)"><rect x="145" y="120" width="260" height="150" rx="18" fill="#fff"/><rect x="165" y="145" width="110" height="18" rx="9" fill="#007041"/><rect x="165" y="180" width="185" height="10" rx="5" fill="#94a3b8"/><rect x="165" y="205" width="160" height="10" rx="5" fill="#cbd5e1"/><circle cx="352" cy="225" r="28" fill="#e6007e"/></g><g transform="rotate(7 320 210)"><rect x="225" y="150" width="260" height="150" rx="18" fill="#f8fafc" opacity=".94"/><rect x="245" y="176" width="130" height="16" rx="8" fill="#111827"/><path d="M245 218h190M245 242h150" stroke="#94a3b8" stroke-width="9" stroke-linecap="round"/></g></g><text x="48" y="352" fill="#fff" font-family="Arial, Helvetica, sans-serif" font-size="36" font-weight="800">Business Cards</text><text x="48" y="382" fill="#fff" opacity=".86" font-family="Arial, Helvetica, sans-serif" font-size="17" font-weight="600">front-only and front &amp; back visiting cards</text></svg>