<svg xmlns="http://www.w3.org/2000/svg" viewBox="0 0 640 420" role="img" aria-labelledby="t d">
<title id="t">Brochures &amp; Menus</title><desc id="d">folded brochures, café menus and flyers</desc>
<defs><linearGradient id="g" x1="0" y1="0" x2="1" y2="1"><stop offset="0" stop-color="#0f766e"/><stop offset="1" stop-color="#00a6df"/></linearGradient><filter id="s" x="-20%" y="-20%" width="140%" height="140%"><feDropShadow dx="0" dy="18" stdDeviation="18" flood-color="#020617" flood-opacity=".22"/></filter></defs>
<rect width="640" height="420" rx="44" fill="url(#g)"/><path d="M-40 350C80 250 150 360 290 250s210-120 390-40v250H-40z" fill="#ffffff" opacity=".14"/><circle cx="542" cy="86" r="76" fill="#ffffff" opacity=".13"/><g filter="url(#s)"><path d="M155 115h105c35 0 45 28 45 28v180s-16-26-50-26H155z" fill="#fff"/><path d="M305 143s10-28 45-28h105v182H355c-34 0-50 26-50 26z" fill="#f8fafc"/><path d="M185 160h70M185 195h88M335 160h82M335 195h68M185 240h230" stroke="#94a3b8" stroke-width="8" stroke-linecap="round"/><rect x="190" y="260" width="72" height="38" rx="8" fill="#e6007e"/></g><text x="48" y="352" fill="#fff" font-family="Arial, Helvetica, sans-serif" font-size="36" font-weight="800">Brochures &amp; Menus</text><text x="48" y="382" fill="#fff" opacity=".86" font-family="Arial, Helvetica, sans-serif" font-size="17" font-weight="600">folded brochures, café menus and flyers</text></svg>