<svg xmlns="http://www.w3.org/2000/svg" viewBox="0 0 640 420" role="img" aria-labelledby="t d">
<title id="t">Flex &amp; Vinyl</title><desc id="d">banners, vinyl, eco vinyl, clear vinyl</desc>
<defs><linearGradient id="g" x1="0" y1="0" x2="1" y2="1"><stop offset="0" stop-color="#e6007e"/><stop offset="1" stop-color="#f4c300"/></linearGradient><filter id="s" x="-20%" y="-20%" width="140%" height="140%"><feDropShadow dx="0" dy="18" stdDeviation="18" flood-color="#020617" flood-opacity=".22"/></filter></defs>
<rect width="640" height="420" rx="44" fill="url(#g)"/><path d="M-40 350C80 250 150 360 290 250s210-120 390-40v250H-40z" fill="#ffffff" opacity=".14"/><circle cx="542" cy="86" r="76" fill="#ffffff" opacity=".13"/><g filter="url(#s)"><path d="M120 130c80-28 145 28 220 5s126-42 180 0v150c-72-36-128 20-190 0s-135-38-210 0z" fill="#fff" opacity=".94"/><path d="M150 165h310M150 205h260M150 245h220" stroke="#0f172a" stroke-width="10" stroke-linecap="round" opacity=".5"/><circle cx="462" cy="210" r="34" fill="#f4c300"/></g><text x="48" y="352" fill="#fff" font-family="Arial, Helvetica, sans-serif" font-size="36" font-weight="800">Flex &amp; Vinyl</text><text x="48" y="382" fill="#fff" opacity=".86" font-family="Arial, Helvetica, sans-serif" font-size="17" font-weight="600">banners, vinyl, eco vinyl, clear vinyl</text></svg>