<svg xmlns="http://www.w3.org/2000/svg" viewBox="0 0 640 420" role="img" aria-labelledby="t d">
<title id="t">Lamination</title><desc id="d">ID cards, certificates and full-size lamination</desc>
<defs><linearGradient id="g" x1="0" y1="0" x2="1" y2="1"><stop offset="0" stop-color="#00a6df"/><stop offset="1" stop-color="#e6007e"/></linearGradient><filter id="s" x="-20%" y="-20%" width="140%" height="140%"><feDropShadow dx="0" dy="18" stdDeviation="18" flood-color="#020617" flood-opacity=".22"/></filter></defs>
<rect width="640" height="420" rx="44" fill="url(#g)"/><path d="M-40 350C80 250 150 360 290 250s210-120 390-40v250H-40z" fill="#ffffff" opacity=".14"/><circle cx="542" cy="86" r="76" fill="#ffffff" opacity=".13"/><g filter="url(#s)"><rect x="150" y="100" width="320" height="120" rx="28" fill="#f8fafc"/><rect x="190" y="136" width="240" height="52" rx="8" fill="#e0f2fe"/><rect x="220" y="170" width="180" height="135" rx="14" fill="#fff" opacity=".95"/><path d="M245 210h130M245 232h115M245 254h100" stroke="#94a3b8" stroke-width="7" stroke-linecap="round"/><path d="M210 176l220 0" stroke="#ffffff" stroke-width="14" opacity=".65"/></g><text x="48" y="352" fill="#fff" font-family="Arial, Helvetica, sans-serif" font-size="36" font-weight="800">Lamination</text><text x="48" y="382" fill="#fff" opacity=".86" font-family="Arial, Helvetica, sans-serif" font-size="17" font-weight="600">ID cards, certificates and full-size lamination</text></svg>